/* XPM */
static char *cafa0958c684495cd59437d71533fdbe7VsoNFV6sLKEuRQV[] = {
/* columns rows colors chars-per-pixel */
"32 32 15 1 ",
"  c None",
". c black",
"X c #603000",
"o c gray25",
"O c #606060",
"+ c gray44",
"@ c #804000",
"# c #808080",
"$ c #909090",
"% c #A0A0A0",
"& c gray69",
"* c #C0C0C0",
"= c #D0D0D0",
"- c gray88",
"; c white",
/* pixels */
"                                ",
"                                ",
"                                ",
"              @@@               ",
"             %@@@%              ",
"            ;=XXX&%             ",
"             ;=-*%              ",
"             $#Oo$              ",
"             $#Oo$              ",
"             &#Oo$        ...   ",
"             &#Oo$       .....  ",
"             &#Oo$      ......  ",
"             &%Oo$     ......   ",
"             &%Oo+   .......    ",
"           #==%%Oo++.......     ",
"          #;;;=%OOoo+.....      ",
"         #;;;;;;*##oo+....      ",
"        #--;;;;-*%%%**+...      ",
"        #%*-;;-****--#+..       ",
"        #%%****---####+..       ",
"        ##%%%%######*%+..       ",
"        #%###%####*%%%+..       ",
"        ###%###%%%%%**+.        ",
"        .####%%%%****+..        ",
"        .#%%%%%-****-+..        ",
"        ..$******---+..         ",
"         ..$$-----++..          ",
"          ...+++++...           ",
"            .......             ",
"                                ",
"                                ",
"                                "
};
