/* XPM */
static char *e2d6819ceb684581f6a7df7ab5da59c3I2Iq2e2nHguHcpFS[] = {
/* columns rows colors chars-per-pixel */
"32 32 12 1 ",
"  c None",
". c black",
"X c #7F5A48",
"o c gray44",
"O c #A5765E",
"+ c #CA8F72",
"@ c #909090",
"# c #A0A0A0",
"$ c gray69",
"% c #E5A282",
"& c #FFB691",
"* c #FFD3AF",
/* pixels */
"                                ",
"                                ",
"               ..               ",
"              .*%.              ",
"             .*&&%.             ",
"             +&++%+             ",
"             .+*&+.             ",
"             .X&&X.             ",
"              .&+.              ",
"            ..+OO+..            ",
"           .&+&&&&+&.           ",
"          .&&**&&**++.          ",
"          .&&&&&&&&+&.          ",
"         .&&++++++++&+.         ",
"         .&+.+&&&&+.&+.         ",
"      ...&&+..&&&+..&&+...      ",
"     .&+&&+...+&++...&&+&+.     ",
"     .&+++. .#$$#@o. .++&+.     ",
"     .&+..  .#@@@oo.  ..&+.     ",
"      ..    .o#@ooo.    ..      ",
"            .&+##+&.            ",
"           .&&+..+&+.           ",
"           .&&+..+&+.           ",
"           .&+.  .&+.           ",
"           .&+.  .&+.           ",
"          .&&+.  .&&+.          ",
"          .&&+.  .&&+.          ",
"          .&+.    .&+.          ",
"          .&+.    .&+.          ",
"         .&+.      .&+.         ",
"        .&++.      .&&+.        ",
"        ....        ....        "
};
