/* XPM */
static char *_dcba577310c416eff5cd81f11a01e17UbVVuWJ0NLpGZCWe[] = {
/* columns rows colors chars-per-pixel */
"32 32 22 1 ",
"  c black",
". c #101010",
"X c #280000",
"o c #3D0000",
"O c #202020",
"+ c gray19",
"@ c #510000",
"# c #660000",
"$ c gray25",
"% c #505050",
"& c #606060",
"* c gray44",
"= c #800000",
"- c #A00000",
"; c #C00000",
": c #E00000",
"> c red",
", c yellow",
"< c #808080",
"1 c #909090",
"2 c #A0A0A0",
"3 c #C0C0C0",
/* pixels */
"              3   3             ",
" *22<*%O*21>%+3>::3+<>2<*$O<1*$ ",
" <<*%%$O%%%>$:3>>:3-1>1**%O12*% ",
" %$$++OOO++>>:>>>::->>%%%$.<1*% ",
" ++OO21<*%O*>:,,>,,->$++O..+**% ",
" *<*O%%%$$O2*:>>>:;-+OO*<*%O<*$ ",
" <1*+++OOOO%%::>>:;-*%+<2*%O%%$ ",
" %*1<*$+1*+OO==>>:==$$O<**$OOOO ",
" $%*2*%O*<%O*<:===;+OOO+%$$+**% ",
" +++$%$O1*%O2*%:;;*<2*%OO++*<2% ",
" <*%++OO%%$+%$OOOO%%<*$O$%%*1*% ",
" 1<%+*<+++$OOO    OO%%O+OOO+<*$ ",
" 2*$O<1<%OOO        OO%**2%O**$ ",
" %%$O*<*$O            O%<*%O%$O ",
" OOOO%%$O              O<%+OOOO ",
" <*%+OO+O              O<%+*<*% ",
" *1<*%O%O              O<%O2<*% ",
" <*<*%+%O              O*%O*1*% ",
" %%$$+*$O              O+OO+<*% ",
" +OOO+<$O              O**%+**% ",
" **%O$$$O              O**%O%%% ",
" <1%+OO+O              O<%+O++O ",
" 1<*%O*%O+XoXoXoXoXoX+.O2%O*<*% ",
" %%$$O2%O.XXXXXXXXXXX..O1%O1**% ",
" +OOO+1%O+$o@o@o@o@o@+$O*$O<2<% ",
" *%O*<*$O++oooooooooo++O*$+*<*$ ",
" *%+%%$$O%%@%%@@@@@@%%%O++O+**% ",
" 2$+OOO+O&%#%&%#@#@#%&%O2*%O%%$ ",
" 1*%O2*%O%%%%%%%%@@%%%%O1*%OO+O ",
" **$+<*%O&&&&&&&&&#&&&&O<*$O<*$ ",
" %$$+%%$O*&*&*&*&*&*&*&O%$$+%%$ ",
"                                "
};
