/* XPM */
static char *_d79b8e27b324abfc21f0f76466f468edyLP1rjA1aNMq1PX[] = {
/* columns rows colors chars-per-pixel */
"32 32 8 1 ",
"  c #909090",
". c #A0A0A0",
"X c gray69",
"o c #C0C0C0",
"O c #D0D0D0",
"+ c gray88",
"@ c gray94",
"# c white",
/* pixels */
"..  ....... .....  ...   ..    .",
".X@OX.X@OOX .O@O. O@oXOO.X@O.OOX",
" @XX.XXOXX .oXoOX.XO.X.XoXX+oXX@",
" OOXXOOX  .XXoOXoXoO#.XOoo.X+oXo",
" Xo@XoXXXX. oooXXOoo. XoX#XX+ooX",
". XoXXXoo@# oOOoXXX. oO++oo.X+O.",
".Ooo.X@ oO+XX@Xo@   X#oX.. XXoXX",
".+XoX  XOXO++OXX+XXX.XXX.o XoX.X",
".@XoX.XOoXXoooooO++#o.oo. X@XX.o",
" O+Xo++OX.. X.XOooOXo.XXXX.XXo@X",
" XXooo+X. #..XXoXoXO.X .oo.  oX@",
"  .X.XoX .X++ooX#XoXX. XX@X ..oo",
".@Oo.XXoXX+o.X.O..XoO XOOooXX.oX",
".@OOX.. +oXX.#.XoXXo.XoOOOOXoX@X",
" .X@OO  +X.XXOoOoXO.XOO.XoOOoXoo",
".OXXXooXo.Xoo+XXX.XXOo .Xo@oXX.X",
".O.XooXX.XO++oo.oOOoo .X@oXXoXXX",
"  .X.@Xo.XXoXXoX.X.#..oooXXX.ooX",
" .X..XXoOo.##.oX.XX.XoX#XOo .X@o",
".@XoXo@oX+O@. Xo#.X@X+oX.X+#oX.o",
".Oo#. #XO+X. o+o..X+X+X..XX+Oo X",
" ..XXoOOXXo++XX+.X+XoXX#X.XX oo.",
" XoOOX.XO. XXX.ooX#XoO.+X.O .XXX",
".OXX  X.XO.X#.XX.+#oX.XX+ XO.X..",
" +. OXXOO#X .oX. #.oo..OXooXX. X",
".+ Oo++oXoo Xo#X+oXXXoX.XX+oXo X",
" XoX++X. XXX.XooXXoo@XoXXo+OXOoo",
"  ..O@. XO+XX.XX+oXXooOoOOooo#+o",
" O.@XX.#O@X+.X.+XX.OXXoXoXXX Xoo",
".OoXXoXXOoX+ooX+XXX. OoX.XX +#O ",
".X.X#oX.oOoX@XXX+oX .XXoX.@+. . ",
" Xo#oXX..XX.XXooXooXX.X#X.XXX. X"
};
