/* XPM */
static char *d6faa2bba449427ba79c46708196388ctxEYsNVqEJOnh0c6[] = {
/* columns rows colors chars-per-pixel */
"32 32 15 1 ",
"  c None",
". c black",
"X c #806000",
"o c #A07800",
"O c #AA8834",
"+ c #C09000",
"@ c #E0A800",
"# c #C0A040",
"$ c #F2C44D",
"% c #F8E060",
"& c #A0A0A0",
"* c gray69",
"= c #FCFC99",
"- c #C0C0C0",
"; c #D0D0D0",
/* pixels */
"                                ",
"               O                ",
"              OOOO              ",
"             OOOOOOO            ",
"            ##########          ",
"           $$$$$$$$$$$$$        ",
"          %%%%%%%%%%%%%%%%      ",
"         ===================    ",
"        %%%%%%%%%%%%%%%%%%%%%   ",
"       $$$$$$$$$$$$$$$$$$$$$$$  ",
"      ######################O#% ",
"     ######################O#%#.",
"    OOOOOOOOOOOOOOOOOOOOOOOO%#O.",
"   OOOOOOOOOOOOOOOOOOOOOOO@%#OO.",
"  OOOOOOOOOOOOOOOOOOOOOOO#%+OO..",
" ######################O#%#oO.. ",
"######################O#%#OX..  ",
"$$$$$$$$$$$$$$$$$$$$$O#%#OO..   ",
" %%%%%%%%%%%%%%%%%%%O#%#OO..    ",
" &&================O#%#OO..     ",
" **&&%%%%%%%%%%%%%O#%#OO..      ",
" --**&&$$$$$$$$$$O#%#OO..       ",
"#;;--**&&#######O#%#OO..        ",
".##;;--**&&OOOOO#%#OO..         ",
" ..##;;--**&&OO#%#OO..          ",
"   ..##;;--**&#%#OO..           ",
"     ..##;;--*%#OO..            ",
"       ..##;;-$OO..             ",
"         ..##*$O..              ",
"           ..#O..               ",
"             ...                ",
"                                "
};
