/* XPM */
static char *_d8d498d1ddc44b9ea85e293db4a54edm3L3LOTAxeJdfyqh[] = {
/* columns rows colors chars-per-pixel */
"32 32 19 1 ",
"  c None",
". c black",
"X c #603030",
"o c #7F5A48",
"O c #A00000",
"+ c #C00000",
"@ c #E00000",
"# c #804000",
"$ c #A05000",
"% c #C06000",
"& c #E07000",
"* c #A5765E",
"= c #E0A838",
"- c #CA8F72",
"; c #FFC040",
": c #0070E0",
"> c #0080FF",
", c #FFFFA0",
"< c #C0C0C0",
/* pixels */
"                                ",
"               =;=;             ",
"              ;=;o;=            ",
"              =;=*o;=           ",
"             ;=;*-*;=;          ",
"             =;**-*;=;          ",
"             ;=*<<<*;=          ",
"             ;=o***o=           ",
"            --=*ooo*=--         ",
"           -*-*;**-,--*--       ",
"          -**--,--;---**--      ",
"         -**o---,;---*o**--     ",
"        -**oX*--**---*Xo***&&%  ",
"        -*oX o**oo**ooX oo&&&%  ",
"       -**X  ooooooooX  &&&&&%  ",
"       -*o   o**o***oX &&&&&%   ",
"      --*     ooooooX  &&&&&*-  ",
"      --o     +@@@@+O &&&&&%-*  ",
"      **o    +@@@@@+O%%&&&&%    ",
"             +@@++@+OO%&&&&%    ",
"            +@@+OO@++O%%&&%     ",
"            +@@+  +@+O%%&%      ",
"            --*o %o*--$%% ....  ",
"            --*o %o*--$%%.....  ",
"            -*o %%%o--o$......  ",
"            o*o %%%ooo*.......  ",
"            ooo$%%%Xo**......   ",
"            **X$$$%$X**.....    ",
"            *oX#$##.Xo*....     ",
"           *>oX##...Xo>*..      ",
"          >>:::...  >:::.       ",
"          .......   ....        "
};
