/* XPM */
static char *feeacf7704434b2e9b15990d17a4377eHT3vABA9sDtoHeBp[] = {
/* columns rows colors chars-per-pixel */
"32 32 8 1 ",
"  c None",
". c black",
"X c #003000",
"o c #004000",
"O c #006000",
"+ c #C03000",
"@ c #008000",
"# c #00A000",
/* pixels */
"                                ",
"                                ",
"               ..               ",
"              .oo.              ",
"             #oOOo#             ",
"             .#@@#.             ",
"             .+Xo+.             ",
"             .OXOo.             ",
"              .OO.              ",
"            ..oOoo..            ",
"           .OooOoooo.           ",
"          .OoOOoOOOOo.          ",
"          .OoOOooOoOo.          ",
"         .OOooo@@oooOo.         ",
"         .Oo.o@OOOo.oo.         ",
"      ...OOo..###@..oOo...      ",
"     .OoOOo...@OOO...OOOoO.     ",
"     .Oooo. .o###@o. .oooO.     ",
"     .Oo..  .o@OOOo.  ..oO.     ",
"      ..    .o@##@o.    ..      ",
"            .OoOOoo.            ",
"           .OOo..OOo.           ",
"           .OOo..OOo.    .      ",
"           .Oo.oX.Oo.   .o.     ",
"           .Oo.oX.Oo.   .o.     ",
"          .OOo.oX.OOo. .X.      ",
"          .OOo.oo.OOo..Xo.      ",
"          .Oo. .oo.Oo.Xo.       ",
"          .Oo.  .o.OO.o.        ",
"         .Oo.    ...Oo.         ",
"        .#O#.      .#o#.        ",
"         ...        ...         "
};
