/* XPM */
static char *_b0df052a05a42c48dbb750dbe03be193uJhGdoQbhe3i8Zv[] = {
/* columns rows colors chars-per-pixel */
"32 32 10 1 ",
"  c #183030",
". c #204040",
"X c #306060",
"o c #608080",
"O c #78A0A0",
"+ c #90C0C0",
"@ c #A8E0E0",
"# c #C0C0FF",
"$ c #FFC0FF",
"% c #C0FFFF",
/* pixels */
"%%%$@$#++#ooXO#+O+%@%+ooo@@+@+oo",
"%+OO+OOoX..XOOOoXoO+OoOoooOO+OX.",
"#OO+@+++XXo.++oXoO+O+OOo+O++O+. ",
"$@+O+@OXo+X.+@+oO+@+O+ooO+@@+@X ",
"$+@+OOOoOoX.+O+OXo+@+oX++@@@@+X.",
"%+++@O+++O@.O@+@+O@+oXoOO@@++OX ",
"$@+O@+O+Oo+.X@OoXO+@o..o++@@O+  ",
"%OOo+oo+O++O.XoX.XOOooX+XO+++OX ",
"@++O+OXOOXo..XoOOoX...o+XooOO+X ",
"%Oo+OOXOXOoOXXOOooOo..XoOX+Oo+ .",
"@Oo+OOooOoOXX+@++O+OoXoOooO+oO. ",
"%+OOooXOO++XO++@@@+OO++OOXXoOo  ",
"$OOo+OXOXX.XO+@+@+OoXXXoOoOOXO  ",
"#oOo+XoX...XXO+@+Oo...XXoXoXXO  ",
"%OoX%XoOXXXoOXO@O.X.X.XO+XX.o+ .",
"#oOXO%X+OoXO+O+XX.OXXXO+Oo..O+  ",
"#oO+X+XOOXoOO+@X..Oo+O++OX.X+O  ",
"%Oo+oOX+OoX++OX..XoO++OOo.XoOO .",
"%OOO+oXO+Xo@+OX..XOoO++OOXo+oo. ",
"@OooO+OXOXo@O+...XOO+O+OXoO+Oo. ",
"@OXoXO+oOoOO++..XXoO+OOOXo+OoX. ",
"@OoXoo+OXoO+@+XX.o+OOooXoOOoX.  ",
"++OOOXoOXo+O@+OX.oO+OOo.oXXo.. .",
"+O+oooXOoXO++oOoo.X@Oo.X.ooXXX  ",
"@O+OXXXoOOX+O+oX..+@oXoX.oOooX  ",
"@O+OXoX.XooXoO+@+.XO.Oo.oOoo.o. ",
"+O+OooXo.XooXXooX...OoXooOo.XX  ",
"@O++OoOo..oOOOX...XXOXoXOo.ooo. ",
"+O++OOOoOXXo++OOo..OoXo.oXoXoo .",
"+OOOOOOOo.oOO+OOX..XoX.XooX.XX. ",
"o.  . ... ..... ..  ..  ..  .. .",
"o  .   ..  ..   . .   . .       "
};
